<svg width="33" height="15" viewBox="0 0 33 15" fill="none" xmlns="http://www.w3.org/2000/svg">
<path fill-rule="evenodd" clip-rule="evenodd" d="M6.50757 2.04236C6.12986 2.5081 5.52552 2.87545 4.92118 2.82298C4.84564 2.19323 5.14151 1.52413 5.48775 1.11086C5.86546 0.631998 6.52645 0.290888 7.06155 0.264648C7.1245 0.92063 6.87899 1.56349 6.50757 2.04236ZM7.05445 2.94759C6.52204 2.91566 6.03624 3.11444 5.64384 3.275C5.39133 3.37832 5.17749 3.46582 5.01481 3.46582C4.83225 3.46582 4.60959 3.37364 4.35958 3.27015C4.032 3.13454 3.65749 2.97951 3.26475 2.98695C2.36453 3.00007 1.52727 3.53141 1.06773 4.37763C0.123447 6.07006 0.822213 8.5759 1.73502 9.95346C2.18197 10.6357 2.71707 11.3835 3.42213 11.3573C3.73231 11.3451 3.95544 11.2464 4.18636 11.1443C4.45221 11.0268 4.72838 10.9046 5.1596 10.9046C5.57587 10.9046 5.83997 11.0236 6.09348 11.1377C6.33453 11.2463 6.56602 11.3505 6.90966 11.3441C7.6399 11.331 8.09945 10.6619 8.54641 9.9797C9.02875 9.2475 9.24072 8.5329 9.27288 8.42445L9.27665 8.41191C9.27588 8.41111 9.26993 8.40826 9.25941 8.40325C9.09818 8.32633 7.86576 7.73842 7.85394 6.1619C7.84207 4.83863 8.83146 4.16819 8.9872 4.06265C8.99668 4.05623 9.00307 4.0519 9.00596 4.04964C8.37644 3.07879 7.39439 2.97383 7.05445 2.94759ZM12.1086 11.272V1.04524H15.7913C17.6924 1.04524 19.0207 2.40968 19.0207 4.40386C19.0207 6.39805 17.6672 7.7756 15.7409 7.7756H13.632V11.272H12.1086ZM13.6337 2.38347H15.3901C16.7121 2.38347 17.4675 3.11817 17.4675 4.41045C17.4675 5.70274 16.7121 6.44399 15.3838 6.44399H13.6337V2.38347ZM24.0505 10.0453C23.6476 10.8456 22.76 11.3507 21.8031 11.3507C20.3867 11.3507 19.3983 10.4717 19.3983 9.14662C19.3983 7.83466 20.3552 7.08028 22.1241 6.96877L24.0253 6.85069V6.28655C24.0253 5.45345 23.5028 5.00083 22.5711 5.00083C21.8031 5.00083 21.2428 5.41409 21.1295 6.04384H19.7571C19.8012 4.71875 20.9973 3.75446 22.6152 3.75446C24.3589 3.75446 25.4921 4.70564 25.4921 6.18159V11.272H24.0819V10.0453H24.0505ZM22.213 10.1372C21.4009 10.1372 20.8847 9.73044 20.8847 9.10726C20.8847 8.4644 21.382 8.09049 22.3326 8.03145L24.026 7.91994V8.4972C24.026 9.45493 23.2454 10.1372 22.213 10.1372ZM30.1713 11.6721C29.5607 13.463 28.8619 14.0534 27.3763 14.0534C27.263 14.0534 26.8853 14.0402 26.7971 14.014V12.7873C26.8916 12.8004 27.1245 12.8136 27.2441 12.8136C27.9177 12.8136 28.2954 12.5184 28.5283 11.7509L28.6668 11.2982L26.0858 3.85286H27.6784L29.4726 9.89444H29.5041L31.2982 3.85286H32.8468L30.1713 11.6721Z" fill="white"/>
</svg>
