<svg width="84" height="32" viewBox="0 0 84 32" fill="none" xmlns="http://www.w3.org/2000/svg">
<g clip-path="url(#clip0_629_3413)">
<path d="M73.5414 18.3893C73.2175 18.3893 72.9746 18.3083 72.7857 18.1194C72.6237 17.9574 72.5158 17.6875 72.5158 17.3636V7.40416C72.5158 7.08028 72.5967 6.81037 72.7857 6.64843C72.9746 6.48649 73.2175 6.40552 73.5414 6.40552H75.3497C75.7546 6.40552 76.1055 6.43251 76.4024 6.4595C76.6993 6.51348 76.9692 6.59445 77.1581 6.75639C77.374 6.91833 77.509 7.13426 77.6169 7.45814C77.7249 7.75504 77.7789 8.18688 77.7789 8.6997V16.0951C77.7789 16.7698 77.6979 17.2557 77.509 17.5795C77.32 17.9034 77.0501 18.1194 76.6993 18.2273C76.3484 18.3353 75.8896 18.3893 75.3497 18.3623L73.5414 18.3893ZM67.7385 0.602578C67.4146 0.629568 67.1447 0.71054 66.9827 0.872482C66.8208 1.03442 66.7398 1.30433 66.7398 1.62821V23.1666C66.7398 23.4904 66.8208 23.7334 67.0097 23.9223C67.1717 24.0842 67.4416 24.1922 67.7654 24.1922H75.2688C76.8342 24.1922 78.1837 24.0303 79.2634 23.7064C80.343 23.3825 81.2067 22.8697 81.8544 22.2219C82.5022 21.5741 82.988 20.7104 83.2579 19.6848C83.5548 18.6592 83.6898 17.4716 83.6898 16.0951V8.6997C83.6898 7.32319 83.5548 6.13561 83.2579 5.10998C82.961 4.08434 82.5022 3.24764 81.8544 2.59987C81.2067 1.92511 80.343 1.43928 79.2634 1.1154C78.1837 0.791511 76.8612 0.629568 75.2688 0.629568L67.7385 0.602578ZM57.9139 14.8265C57.9139 15.4743 57.887 16.0681 57.86 16.5809C57.806 17.0937 57.698 17.5256 57.5361 17.9034C57.3741 18.2813 57.1042 18.5512 56.7264 18.7401C56.3755 18.9291 55.8897 19.037 55.2689 19.037C54.6481 19.037 54.1623 18.9291 53.8114 18.7401C53.4335 18.5512 53.1906 18.2813 53.0017 17.9034C52.8398 17.5526 52.7318 17.0937 52.6778 16.5809C52.6238 16.0681 52.5968 15.4743 52.6238 14.8265V9.96825C52.6238 9.32048 52.6508 8.72669 52.6778 8.21387C52.7318 7.70106 52.8398 7.26921 53.0017 6.89134C53.1636 6.51348 53.4335 6.24357 53.8114 6.05464C54.1623 5.86571 54.6481 5.75775 55.2689 5.75775C55.8897 5.75775 56.3755 5.86571 56.7264 6.05464C57.1042 6.24357 57.3471 6.51348 57.5361 6.89134C57.698 7.24222 57.806 7.70106 57.86 8.21387C57.9139 8.72669 57.9139 9.32048 57.9139 9.96825V14.8265ZM63.6899 8.18688C63.6899 7.80902 63.6629 7.35018 63.6089 6.81037C63.5549 6.27056 63.447 5.70376 63.258 5.08299C63.0691 4.46221 62.7992 3.86842 62.4483 3.27463C62.0705 2.68084 61.5846 2.14103 60.9639 1.6552C60.3431 1.16938 59.5604 0.764521 58.6157 0.467626C57.671 0.170732 56.5374 0.0357795 55.2149 0.00878906C53.8924 0.00878906 52.7588 0.170732 51.8141 0.467626C50.8694 0.764521 50.0867 1.16938 49.466 1.6552C48.8452 2.14103 48.3593 2.68084 47.9815 3.27463C47.6036 3.86842 47.3337 4.4892 47.1718 5.08299C46.9828 5.70376 46.8749 6.27056 46.8209 6.81037C46.7669 7.35018 46.7399 7.80902 46.7399 8.18688V16.6079C46.7399 16.9858 46.7669 17.4446 46.8209 17.9844C46.8749 18.5242 46.9828 19.091 47.1718 19.7118C47.3337 20.3326 47.6306 20.9264 47.9815 21.5201C48.3593 22.1139 48.8452 22.6537 49.466 23.1666C50.0867 23.6524 50.8694 24.0572 51.8141 24.3271C52.7588 24.624 53.8924 24.786 55.2149 24.786C56.5374 24.786 57.671 24.624 58.6157 24.3271C59.5604 24.0303 60.3431 23.6524 60.9639 23.1666C61.5846 22.6807 62.0705 22.1409 62.4483 21.5201C62.8262 20.9264 63.0961 20.3056 63.258 19.7118C63.42 19.091 63.5549 18.5242 63.6089 17.9844C63.6629 17.4446 63.6899 16.9858 63.6899 16.6079V8.18688ZM38.2919 14.8265C38.2919 15.4743 38.2649 16.0681 38.2379 16.5809C38.184 17.0937 38.076 17.5256 37.9141 17.9034C37.7521 18.2813 37.4822 18.5512 37.1043 18.7401C36.7535 18.9291 36.2676 19.037 35.6469 19.037C35.0261 19.037 34.5403 18.9291 34.1894 18.7401C33.8115 18.5512 33.5686 18.2813 33.3797 17.9034C33.2177 17.5526 33.1098 17.0937 33.0558 16.5809C33.0018 16.0681 32.9748 15.4743 33.0018 14.8265V9.96825C33.0018 9.32048 33.0288 8.72669 33.0558 8.21387C33.1098 7.70106 33.2177 7.26921 33.3797 6.89134C33.5416 6.51348 33.8115 6.24357 34.1894 6.05464C34.5403 5.86571 35.0261 5.75775 35.6469 5.75775C36.2676 5.75775 36.7535 5.86571 37.1043 6.05464C37.4822 6.24357 37.7251 6.51348 37.9141 6.89134C38.076 7.24222 38.184 7.70106 38.2379 8.21387C38.2919 8.72669 38.2919 9.32048 38.2919 9.96825V14.8265ZM44.0949 8.18688C44.0949 7.80902 44.0679 7.35018 44.0139 6.81037C43.9599 6.27056 43.8519 5.70376 43.663 5.08299C43.4741 4.46221 43.2042 3.86842 42.8533 3.27463C42.4754 2.68084 41.9896 2.14103 41.3688 1.6552C40.748 1.16938 39.9653 0.764521 39.0207 0.467626C38.076 0.170732 36.9424 0.0357795 35.6199 0.00878906C34.2973 0.00878906 33.1637 0.170732 32.2191 0.467626C31.2744 0.764521 30.4917 1.16938 29.8709 1.6552C29.2501 2.14103 28.7643 2.68084 28.3864 3.27463C28.0086 3.86842 27.7387 4.4892 27.5767 5.08299C27.3878 5.70376 27.2798 6.27056 27.2259 6.81037C27.1719 7.35018 27.1449 7.80902 27.1449 8.18688V16.6079C27.1449 16.9858 27.1719 17.4446 27.2259 17.9844C27.2798 18.5242 27.3878 19.091 27.5767 19.7118C27.7387 20.3326 28.0356 20.9264 28.3864 21.5201C28.7643 22.1139 29.2501 22.6537 29.8709 23.1666C30.4917 23.6524 31.2744 24.0572 32.2191 24.3271C33.1637 24.624 34.2973 24.786 35.6199 24.786C36.9424 24.786 38.076 24.624 39.0207 24.3271C39.9653 24.0303 40.748 23.6524 41.3688 23.1666C41.9896 22.6807 42.4754 22.1409 42.8533 21.5201C43.2312 20.9264 43.5011 20.3056 43.663 19.7118C43.825 19.091 43.9599 18.5242 44.0139 17.9844C44.0679 17.4446 44.0949 16.9858 44.0949 16.6079V8.18688ZM24.1759 0.602578C24.8507 0.602578 25.1746 0.953453 25.1746 1.60122V5.37988C25.1746 5.70376 25.0936 5.94668 24.9317 6.13561C24.7697 6.32454 24.4998 6.40552 24.1759 6.40552H15.3771C15.0532 6.40552 14.8103 6.48649 14.6213 6.64843C14.4324 6.81037 14.3514 7.08028 14.3514 7.40416V23.1936C14.3514 23.5174 14.2705 23.7603 14.1085 23.9493C13.9466 24.1112 13.6767 24.2192 13.3528 24.2192H9.38519C9.06131 24.2192 8.8184 24.1382 8.62946 23.9493C8.46752 23.7603 8.35956 23.5174 8.35956 23.1936V1.62821C8.35956 1.30433 8.44053 1.03442 8.62946 0.872482C8.8184 0.71054 9.06131 0.629568 9.38519 0.629568L24.1759 0.602578Z" fill="#CCCCCC"/>
<path d="M82.1513 29.4545C82.1513 29.4275 82.1243 29.4275 82.1243 29.4005C82.1243 29.3735 82.1243 29.3735 82.1513 29.3465L83.5008 27.5112C83.5548 27.4302 83.5548 27.3762 83.5278 27.3492C83.5008 27.3222 83.4468 27.2683 83.3659 27.2683H82.3942C82.3402 27.2683 82.2862 27.2683 82.2592 27.2952C82.2323 27.3222 82.1783 27.3492 82.1513 27.4032L81.0987 28.8337C81.0717 28.8607 81.0717 28.8607 81.0447 28.8607C81.0177 28.8607 81.0177 28.8337 81.0177 28.8067V27.4842C81.0177 27.3492 80.9637 27.2952 80.8288 27.2952H80.073C80.019 27.2952 79.9651 27.3222 79.9381 27.3492C79.9111 27.3762 79.8841 27.4302 79.8841 27.5112V31.7756C79.8841 31.8296 79.9111 31.8836 79.9381 31.9106C79.9651 31.9376 80.019 31.9646 80.073 31.9646H80.8288C80.8827 31.9646 80.9367 31.9376 80.9907 31.9106C81.0447 31.8836 81.0447 31.8296 81.0447 31.7756V31.0469V30.9929C81.0447 30.9659 81.0447 30.9659 81.0717 30.9389L81.3416 30.5611C81.3416 30.5341 81.3686 30.5341 81.3956 30.5341C81.4225 30.5341 81.4225 30.5341 81.4495 30.5611L82.2862 31.8296C82.3132 31.8836 82.3402 31.9106 82.3942 31.9376C82.4212 31.9646 82.4752 31.9646 82.5292 31.9646H83.5278C83.6088 31.9646 83.6627 31.9376 83.6897 31.8836C83.7167 31.8296 83.7167 31.7756 83.6628 31.7217L82.1513 29.4545ZM76.1054 27.2683C76.0515 27.2683 75.9975 27.2952 75.9705 27.3222C75.9435 27.3492 75.9165 27.4032 75.9165 27.4842V30.4531C75.9165 30.5341 75.9165 30.6151 75.9435 30.723C75.9435 30.831 75.9705 30.9389 76.0245 31.0739C76.0515 31.1819 76.1054 31.3168 76.1864 31.4248C76.2674 31.5327 76.3484 31.6407 76.4833 31.7487C76.6183 31.8566 76.7532 31.9106 76.9421 31.9916C77.1311 32.0456 77.347 32.0725 77.6169 32.0725C77.8868 32.0725 78.1027 32.0456 78.2917 31.9916C78.4806 31.9376 78.6425 31.8566 78.7505 31.7487C78.8855 31.6407 78.9664 31.5327 79.0474 31.4248C79.1284 31.3168 79.1823 31.1819 79.2093 31.0739C79.2363 30.9659 79.2633 30.831 79.2633 30.723C79.2633 30.6151 79.2903 30.5341 79.2903 30.4531V27.4842C79.2903 27.3492 79.2363 27.2952 79.1014 27.2952H78.3456C78.2917 27.2952 78.2377 27.3222 78.2107 27.3492C78.1837 27.3762 78.1567 27.4302 78.1567 27.5112V30.4801C78.1567 30.5881 78.1297 30.669 78.1027 30.75C78.0757 30.831 78.0218 30.885 77.9408 30.912C77.8598 30.9389 77.7788 30.9659 77.6439 30.9659C77.5089 30.9659 77.428 30.9389 77.347 30.912C77.266 30.885 77.2121 30.831 77.1851 30.75C77.1581 30.669 77.1311 30.5881 77.1311 30.4801C77.1311 30.3721 77.1041 30.2642 77.1311 30.1292V27.5112C77.1311 27.3762 77.0771 27.3222 76.9421 27.3222L76.1054 27.2683ZM75.2418 30.777C75.3767 30.777 75.4307 30.831 75.4307 30.9659V31.7217C75.4307 31.7756 75.4037 31.8296 75.3767 31.8566C75.3497 31.8836 75.2957 31.9106 75.2148 31.9106H74.459C74.4051 31.9106 74.3511 31.8836 74.3241 31.8566C74.2971 31.8296 74.2701 31.7756 74.2701 31.7217V30.9659C74.2701 30.912 74.2971 30.858 74.3241 30.804C74.3511 30.777 74.4051 30.75 74.459 30.75L75.2418 30.777ZM72.6237 30.0753V30.4261C72.6237 30.5341 72.5967 30.6151 72.5697 30.696C72.5427 30.777 72.4887 30.831 72.4078 30.858C72.3268 30.885 72.2458 30.912 72.1109 30.912C71.9759 30.912 71.8949 30.885 71.814 30.858C71.733 30.831 71.679 30.777 71.652 30.696C71.625 30.6151 71.5981 30.5341 71.5981 30.4261C71.5981 30.3182 71.5711 30.2102 71.5981 30.0753V29.1306V28.7797C71.5981 28.6718 71.625 28.5908 71.652 28.5098C71.679 28.4288 71.733 28.3749 71.814 28.3479C71.8949 28.3209 71.9759 28.2939 72.1109 28.2939C72.2458 28.2939 72.3268 28.3209 72.4078 28.3479C72.4887 28.3749 72.5427 28.4288 72.5697 28.5098C72.5967 28.5908 72.6237 28.6718 72.6237 28.7797V30.0753ZM73.7843 28.7527C73.7843 28.6718 73.7843 28.5908 73.7573 28.4828C73.7573 28.3749 73.7303 28.2669 73.7033 28.1319C73.6763 28.024 73.6223 27.889 73.5414 27.7811C73.4604 27.6731 73.3794 27.5651 73.2445 27.4572C73.1095 27.3492 72.9746 27.2952 72.7856 27.2143C72.5967 27.1603 72.3808 27.1333 72.1109 27.1333C71.841 27.1333 71.625 27.1603 71.4361 27.2143C71.2472 27.2683 71.0852 27.3492 70.9773 27.4572C70.8423 27.5651 70.7614 27.6731 70.6804 27.7811C70.5994 27.889 70.5454 28.024 70.5184 28.1319C70.4914 28.2399 70.4645 28.3749 70.4375 28.4828C70.4375 28.5908 70.4105 28.6718 70.4105 28.7527V30.4261C70.4105 30.5071 70.4105 30.5881 70.4375 30.696C70.4375 30.804 70.4645 30.912 70.5184 31.0469C70.5454 31.1549 70.5994 31.2898 70.6804 31.3978C70.7614 31.5057 70.8423 31.6137 70.9773 31.7217C71.1122 31.8296 71.2472 31.8836 71.4361 31.9646C71.625 32.0186 71.841 32.0456 72.1109 32.0456C72.3808 32.0456 72.5967 32.0186 72.7856 31.9646C72.9746 31.9106 73.1365 31.8296 73.2445 31.7217C73.3794 31.6137 73.4604 31.5057 73.5414 31.3978C73.6223 31.2898 73.6763 31.1549 73.7033 31.0469C73.7303 30.9389 73.7573 30.804 73.7573 30.696C73.7573 30.5881 73.7843 30.5071 73.7843 30.4261V28.7527ZM66.7128 30.4261C66.7128 30.5071 66.7128 30.5881 66.7398 30.696C66.7398 30.804 66.7668 30.912 66.8208 31.0469C66.8477 31.1549 66.9017 31.2898 66.9827 31.3978C67.0637 31.5057 67.1446 31.6137 67.2796 31.7217C67.4145 31.8296 67.5495 31.8836 67.7384 31.9646C67.9274 32.0186 68.1433 32.0456 68.4132 32.0456C68.6561 32.0456 68.845 32.0186 69.034 31.9646C69.1959 31.9106 69.3579 31.8566 69.4658 31.7756C69.5738 31.6947 69.6817 31.6137 69.7627 31.5057C69.8437 31.3978 69.8977 31.2898 69.9516 31.1819C70.0056 31.0739 70.0326 30.9659 70.0326 30.858C70.0596 30.75 70.0596 30.669 70.0596 30.5611C70.0596 30.5071 70.0596 30.4801 70.0326 30.4261C70.0056 30.3991 69.9786 30.3721 69.9246 30.3721L69.1689 30.2102C69.1149 30.1832 69.034 30.2102 69.007 30.2372C68.953 30.2642 68.926 30.3182 68.926 30.3991C68.926 30.5071 68.899 30.5881 68.845 30.669C68.818 30.75 68.7641 30.804 68.6831 30.831C68.6021 30.858 68.5211 30.885 68.3862 30.885C68.2512 30.885 68.1703 30.858 68.0893 30.831C68.0083 30.804 67.9543 30.75 67.9274 30.669C67.9004 30.5881 67.8734 30.5071 67.8734 30.3991C67.8734 30.2912 67.8464 30.1832 67.8734 30.0483V29.1036V28.7527C67.8734 28.6448 67.9004 28.5638 67.9274 28.4828C67.9543 28.4018 68.0083 28.3479 68.0893 28.3209C68.1703 28.2939 68.2512 28.2669 68.3862 28.2669C68.4942 28.2669 68.6021 28.2939 68.6831 28.3209C68.7641 28.3479 68.818 28.4018 68.845 28.4828C68.872 28.5638 68.899 28.6448 68.899 28.7257C68.899 28.8067 68.926 28.8607 68.98 28.8877C69.034 28.9147 69.0879 28.9417 69.1689 28.9417L69.8977 28.7797C69.9516 28.7797 69.9786 28.7527 70.0056 28.7257C70.0326 28.6987 70.0326 28.6448 70.0326 28.6178C70.0326 28.5368 70.0056 28.4288 70.0056 28.3209L69.9246 27.997C69.8707 27.889 69.8167 27.7811 69.7357 27.6731C69.6547 27.5651 69.5468 27.4842 69.4388 27.4032C69.3039 27.3222 69.1689 27.2683 69.007 27.2143C68.845 27.1603 68.6291 27.1333 68.3862 27.1333C68.1163 27.1333 67.9004 27.1603 67.7114 27.2143C67.5225 27.2683 67.3606 27.3492 67.2526 27.4572C67.1176 27.5651 67.0367 27.6731 66.9557 27.7811C66.8747 27.889 66.8208 28.024 66.7938 28.1319C66.7668 28.2399 66.7398 28.3749 66.7128 28.4828C66.7128 28.5908 66.6858 28.6718 66.6858 28.7527V30.4261H66.7128ZM66.092 30.777C66.227 30.777 66.2809 30.831 66.2809 30.9659V31.7217C66.2809 31.7756 66.254 31.8296 66.227 31.8566C66.2 31.8836 66.146 31.9106 66.065 31.9106H65.3093C65.2553 31.9106 65.2013 31.8836 65.1743 31.8566C65.1474 31.8296 65.1204 31.7756 65.1204 31.7217V30.9659C65.1204 30.912 65.1474 30.858 65.1743 30.804C65.2013 30.777 65.2553 30.75 65.3093 30.75L66.092 30.777Z" fill="#CCCCCC"/>
<path d="M16.6727 13.4227C14.1626 13.2068 1.90898 15.204 0.991306 13.0448C-0.547147 9.45508 12.3273 11.4794 14.0547 11.5333C14.9184 11.5603 15.998 11.7223 16.6188 11.5603C17.0506 11.4254 17.3475 10.7236 17.8333 10.4537C18.9129 9.80596 20.6673 10.1568 22.1788 10.2918C23.2044 10.3728 24.2031 10.4807 25.2827 10.5617C23.7442 10.7776 22.0978 10.9935 20.4784 11.2095C20.2894 11.2365 19.9926 11.1555 19.8576 11.3714C21.504 11.6413 23.3664 11.6953 25.1477 11.8302C23.3933 12.1001 21.423 12.1541 19.6957 12.478C19.8036 12.6669 20.1275 12.613 20.3164 12.64C21.8549 12.7479 23.5553 12.8829 25.1747 12.9638C23.5013 13.2337 21.558 13.2877 19.8846 13.6116C19.9386 13.8815 20.2894 13.8005 20.4514 13.8005C21.9898 13.9895 23.7172 14.2054 25.3097 14.3404C23.5553 14.4753 21.3961 14.8802 19.5877 14.9881C18.1842 15.0691 17.3475 14.2594 16.6727 13.4227Z" fill="#CCCCCC"/>
<path d="M12.3273 13.6387C14.2706 13.4767 15.917 13.3418 16.6727 13.3958C17.0236 13.8276 17.3745 14.2325 17.8603 14.5294C18.3192 14.8263 18.859 15.0152 19.5607 14.9612C20.5594 14.9072 21.666 14.7453 22.7456 14.6103C23.5283 14.5024 24.284 14.3944 24.9858 14.3404C24.284 14.2865 23.5823 14.2055 22.8535 14.1245C22.0168 14.0435 21.2071 13.9356 20.4514 13.8276H20.3164C20.1275 13.8276 19.8846 13.8276 19.8576 13.6117V13.5847H19.8846C20.8023 13.3958 21.8279 13.2878 22.8535 13.2068C23.5553 13.1529 24.257 13.0719 24.9048 12.9909C23.6902 12.9099 22.4217 12.829 21.2341 12.748C20.9372 12.721 20.6403 12.694 20.3434 12.694H20.2085C20.0195 12.694 19.8036 12.694 19.6957 12.5321L19.6687 12.5051H19.6957C20.6673 12.3162 21.7199 12.2082 22.7726 12.1272C23.4743 12.0732 24.2031 11.9923 24.8778 11.9113C24.5269 11.8843 24.1491 11.8573 23.7982 11.8303C22.4487 11.7494 21.0722 11.6684 19.8576 11.4795H19.8036L19.8306 11.4525C19.9386 11.2905 20.1275 11.2905 20.2895 11.2905H20.4514L21.7469 11.1286C22.8265 10.9936 23.9332 10.8317 24.9588 10.6967C24.338 10.6428 23.7172 10.5888 23.1234 10.5348C22.7996 10.5078 22.5027 10.4808 22.1518 10.4538L21.3421 10.3728C20.0465 10.2379 18.697 10.076 17.8333 10.6158C17.6174 10.7507 17.4285 10.9666 17.2665 11.1826C17.0506 11.4255 16.8617 11.6684 16.6188 11.7494C16.1869 11.8573 15.5391 11.8303 14.8914 11.7763C14.5945 11.7494 14.2976 11.7224 14.0277 11.7224C13.7308 11.7224 13.11 11.6414 12.3003 11.5604C9.38533 11.1016 3.90627 10.5348 1.77403 11.4525C1.0183 11.7763 0.694415 12.2622 1.0183 13.0449C1.63908 14.5294 7.79289 14.0166 12.3273 13.6387ZM16.6727 13.4498C15.917 13.3958 14.2706 13.5307 12.3273 13.6927C7.79289 14.0705 1.61209 14.5834 0.964319 13.0449C0.613443 12.2352 0.964319 11.7224 1.74704 11.3715C3.90627 10.4538 9.38533 11.0206 12.3273 11.3175C13.137 11.3985 13.7578 11.4795 14.0547 11.4795C14.3246 11.4795 14.6215 11.5064 14.9184 11.5334C15.5661 11.5874 16.1869 11.6144 16.6188 11.5064C16.8347 11.4525 17.0236 11.2095 17.2395 10.9666C17.4285 10.7507 17.5904 10.5348 17.8333 10.3998C18.724 9.86003 20.0735 10.022 21.3961 10.1569L22.2058 10.2379C22.5027 10.2649 22.8535 10.2919 23.1774 10.3189C23.8792 10.3728 24.5809 10.4538 25.3097 10.4808L25.6066 10.5078L25.3367 10.5618C24.2301 10.7237 23.0425 10.8857 21.8549 11.0476L20.5594 11.2096H20.3974C20.2625 11.2096 20.1005 11.2096 19.9926 11.3175C21.2071 11.5064 22.5566 11.5874 23.9062 11.6684C24.365 11.6954 24.7969 11.7224 25.2557 11.7494L25.5256 11.7763L25.2557 11.8033C24.5 11.9113 23.6902 11.9923 22.8805 12.0732C21.8549 12.1812 20.8023 12.2622 19.8576 12.4511C19.9386 12.5591 20.1275 12.5591 20.2895 12.5591H20.4244C20.7213 12.5861 21.0182 12.6131 21.3151 12.6131C22.6106 12.721 23.9601 12.802 25.2557 12.883L25.5256 12.9099L25.2557 12.9639C24.5 13.0719 23.7172 13.1529 22.9345 13.2338C21.9359 13.3418 20.9372 13.4228 20.0195 13.6117C20.0735 13.7736 20.2625 13.7466 20.4244 13.7466H20.5594C21.3421 13.8276 22.1518 13.9356 22.9615 14.0435C23.7712 14.1245 24.6079 14.2325 25.3906 14.2865V14.3404C24.6079 14.3944 23.7172 14.5294 22.8265 14.6373C21.7469 14.7723 20.6403 14.9342 19.6417 14.9882C18.9399 15.0422 18.3731 14.8533 17.9143 14.5564C17.3745 14.2865 16.9966 13.8816 16.6727 13.4498Z" fill="#CCCCCC"/>
</g>
<defs>
<clipPath id="clip0_629_3413">
<rect width="82.6446" height="32" fill="white" transform="translate(0.883301)"/>
</clipPath>
</defs>
</svg>
