<svg width="32" height="31" viewBox="0 0 32 31" fill="none" xmlns="http://www.w3.org/2000/svg">
<path d="M31.9759 0.371204C31.9127 0.178579 31.7368 0.0453919 31.5343 0.0369544C30.5147 -0.00548309 27.7279 0.00182939 23.8822 0.985204C20.3025 1.90064 16.9433 3.40533 14.1675 5.3367C13.9472 5.49002 13.893 5.79283 14.0462 6.01314C14.1994 6.23345 14.5022 6.28777 14.7226 6.13452C17.4039 4.2687 20.6546 2.81377 24.1229 1.92683C25.4189 1.59545 26.7587 1.34389 28.029 1.18627C27.5082 1.4112 26.95 1.67439 26.369 1.98289C22.4401 4.06858 20.245 6.73552 19.032 8.8792C18.8726 8.16395 18.8289 7.34189 18.8286 6.97552C18.8285 6.7072 18.611 6.48977 18.3427 6.48977C18.0743 6.48977 17.8567 6.70733 17.8567 6.9757C17.8567 7.19077 17.8739 8.98302 18.4167 10.0878C17.6686 11.6852 16.9689 13.2821 16.2918 14.8286C16.0042 15.4855 15.7211 16.132 15.4404 16.7649C15.0026 15.9405 14.4256 14.4479 14.5839 12.4956C14.6055 12.2282 14.4063 11.9937 14.1387 11.972C13.872 11.9508 13.6368 12.1496 13.6151 12.4171C13.3877 15.2219 14.503 17.1801 14.9555 17.848C14.1074 19.7223 13.271 21.4484 12.3902 22.9217C11.9367 21.895 11.2263 19.9387 11.2263 17.7604C11.2263 17.492 11.0087 17.2745 10.7404 17.2745C10.472 17.2745 10.2544 17.492 10.2544 17.7604C10.2544 20.6498 11.372 23.1069 11.7742 23.8975C10.8119 25.3353 9.78436 26.4596 8.62367 27.1438C5.08779 23.3037 4.74292 16.0988 10.9201 9.42739C11.6223 8.66902 12.3929 7.94508 13.2107 7.27577C13.4184 7.10577 13.4489 6.79964 13.2789 6.59195C13.1089 6.38427 12.8027 6.35377 12.5951 6.5237C11.7429 7.22133 10.9394 7.97614 10.207 8.76708C3.69104 15.8043 4.05817 23.4746 7.79436 27.6765C4.54073 29.8661 0.514981 30.0029 0.472856 30.0041C0.204731 30.0113 -0.00683118 30.2344 0.000168815 30.5026C0.00710632 30.7665 0.223231 30.9758 0.485731 30.9758C0.490044 30.9758 0.494419 30.9757 0.498731 30.9756C0.685231 30.9707 4.97954 30.83 8.49723 28.3732C9.56311 29.2429 11.235 29.772 13.2621 29.772C15.557 29.772 18.3072 29.0937 21.148 27.4638C23.7798 25.9538 25.6666 23.6438 26.7561 20.5981C27.6891 17.9901 28.0037 14.8521 27.666 11.5234C27.0639 5.58933 29.3056 2.91164 31.8177 0.902017C31.9759 0.775329 32.0389 0.563829 31.9759 0.371204ZM27.6832 4.34633C26.7273 6.34727 26.4054 8.72702 26.699 11.6214C27.0222 14.8071 26.7255 17.798 25.8409 20.2707C24.8315 23.0926 23.0898 25.229 20.6643 26.6208C17.6035 28.377 15.0344 28.7749 13.418 28.7995C11.7655 28.8254 10.3365 28.4726 9.37767 27.8195C10.1757 27.3018 10.9084 26.6075 11.5969 25.7693C11.6348 25.7696 11.6757 25.7698 11.7214 25.7698C12.1986 25.7698 13.0877 25.7493 14.1367 25.6268C16.2354 25.3815 17.8898 24.8636 19.0541 24.0875C19.2774 23.9386 19.3377 23.6369 19.1889 23.4136C19.04 23.1904 18.7383 23.1301 18.515 23.2789C16.7214 24.4746 13.8324 24.7343 12.3412 24.7856C13.2865 23.4374 14.1572 21.8185 15.0159 20.0255C15.8609 20.0234 18.104 19.8406 20.2367 18.1404C20.4465 17.9731 20.481 17.6673 20.3137 17.4575C20.1464 17.2476 19.8407 17.2132 19.6309 17.3805C18.0646 18.6291 16.407 18.9518 15.4841 19.0291C16.0444 17.8166 16.6045 16.5374 17.182 15.2185C17.48 14.5377 17.7827 13.8468 18.0915 13.1512C18.1248 13.152 18.16 13.1525 18.197 13.1525C18.9295 13.1525 20.3882 12.9738 21.9912 11.7861C22.2068 11.6264 22.2521 11.322 22.0923 11.1064C21.9325 10.8908 21.6282 10.8455 21.4125 11.0053C20.4235 11.738 19.5133 12.0133 18.9238 12.1152C18.7809 12.14 18.6501 12.1556 18.5319 12.1656C18.8151 11.5371 19.1042 10.9065 19.401 10.2768C21.2114 6.43527 24.423 4.12058 26.7985 2.85527C27.8283 2.30677 28.7948 1.90214 29.5879 1.61302C28.8911 2.34727 28.2111 3.24133 27.6832 4.34633Z" fill="#00B307"/>
</svg>
