<svg width="32" height="12" viewBox="0 0 32 12" fill="none" xmlns="http://www.w3.org/2000/svg">
<path fill-rule="evenodd" clip-rule="evenodd" d="M8.22982 10.989H5.5037L3.45943 2.96061C3.3624 2.59131 3.15638 2.26482 2.85333 2.11094C2.09703 1.72424 1.26364 1.41649 0.354492 1.26128V0.952183H4.74607C5.35217 0.952183 5.80675 1.41649 5.88251 1.95573L6.94319 7.74685L9.66799 0.952183H12.3184L8.22982 10.989ZM13.8327 10.989H11.2581L13.3781 0.952183H15.9527L13.8327 10.989ZM19.2856 3.73268C19.3614 3.1921 19.8159 2.88301 20.3463 2.88301C21.1797 2.8054 22.0875 2.96062 22.8451 3.34598L23.2997 1.18501C22.5421 0.875918 21.7087 0.720703 20.9524 0.720703C18.4535 0.720703 16.6352 2.11095 16.6352 4.04043C16.6352 5.50828 17.9232 6.27901 18.8323 6.74331C19.8159 7.20628 20.1947 7.51537 20.119 7.97834C20.119 8.6728 19.3614 8.98189 18.6051 8.98189C17.6959 8.98189 16.7868 8.7504 15.9547 8.3637L15.5001 10.526C16.4093 10.9114 17.3929 11.0666 18.302 11.0666C21.1039 11.1429 22.8451 9.75395 22.8451 7.66925C22.8451 5.04398 19.2856 4.8901 19.2856 3.73268ZM31.8554 10.989L29.8111 0.952183H27.6153C27.1608 0.952183 26.7062 1.26128 26.5547 1.72424L22.7692 10.989H25.4196L25.9486 9.52246H29.205L29.5081 10.989H31.8554ZM27.9923 3.65506L28.7486 7.43776H26.6286L27.9923 3.65506Z" fill="white"/>
</svg>
